<svg xmlns="http://www.w3.org/2000/svg" fill="none" viewBox="0 0 960 640">
  <path fill="#041E42" d="M923.987 386.934c-8.282 0-15.005 6.714-15.005 15.001 0 8.278 6.723 15.001 15.005 15.001s14.995-6.723 14.995-15c0-8.288-6.713-15.002-14.995-15.002Zm0 26.784a11.772 11.772 0 0 1-11.782-11.783c0-6.51 5.264-11.774 11.782-11.774 6.51 0 11.78 5.264 11.78 11.774 0 6.512-5.27 11.783-11.78 11.783Zm6.164-15.26a5.082 5.082 0 0 0-5.09-5.082h-7.228v17.123h3.213v-6.954h2.305l3.247 6.954h3.553l-3.39-7.251a5.094 5.094 0 0 0 3.39-4.79Zm-5.09 1.872h-4.015v-3.747h4.014a1.88 1.88 0 0 1 1.878 1.876 1.875 1.875 0 0 1-1.877 1.871Z"/>
  <path fill="#fff" d="M205.198 415.811h68.71l-23.392 56.509h57.554l23.401-56.51h169.232l-4.911 11.874c-11.23 27.108-9.702 61.921 1.809 80.373l65.528 105 50.713-73.627h83.073l45.357-55.77H637.094l-31.736 39.035-63.168-52.515c-1.411-1.329-3.046-8.184-.42-14.5l28.758-69.462s6.06 29.593 44.468 29.593h228.218c10.839 0 43.839 0 56.558-30.726 11.564-27.958-5.693-43.292-5.693-43.292h18.188l20.75-50.052H821.44c-14.105 0-27.166 3.59-37.44 9.755l52.682-127.208h-57.564L721.28 313.966s-10.314-22.225-44.16-22.225h-67.46l109.645-264.8h-57.56l-109.653 264.8H411.31c-36.717 0-70.656 15.473-94.566 41.427 0 0-.277-41.427-49.42-41.427H142.059c-50.076 0-101.69 29.891-117.498 68.052-11.163 26.944 4.552 56.018 40.235 56.018H113.6c20.307 0 41.886-13.515 51.19-20.094 0 0 10.355 20.094 40.41 20.094h-.002Z"/>
  <path fill="#C8102E" d="m643.7 497.543-22.776 28.015h69.38l22.78-28.015H643.7Z"/>
  <path fill="#041E42" d="M133.934 327.923h36.416l9.23-22.3h-37.522c-44.205 0-91.066 26.629-104.68 59.476-8.213 19.859 3.852 36.835 27.417 36.835H113.6c21.213 0 47.038-20.409 47.038-20.409l-22.811-9.617s-10.349 7.733-21.568 7.733H69.487c-5.86 0-8.278-5.632-5.2-13.102 8.842-21.334 40.023-38.616 69.647-38.616Zm71.264 74.011h28.278c10.157 0 18.867-5.913 18.867-5.913l-2.442 5.913h27.507l22.52-54.38c9.592-23.156-5.004-41.931-32.602-41.931h-71.517l-9.233 22.3h77.441c16.533 0 11.493 12.15 11.493 12.15h-55.77c-22.16 0-38.505 10.21-43.729 22.82-8.92 21.543 4.14 39.041 29.187 39.041Zm-5.032-30.943c1.976-4.75 7.439-8.621 12.211-8.621h38.601c8.824 0 16.692-3.351 16.692-3.351l-4.523 10.913c-2.211 5.356-9.937 9.71-15.967 9.71h-41.96c-4.77 0-7.033-3.874-5.054-8.65v-.001Zm396.184-65.368-9.23 22.3h86.685c16.542 0 11.496 12.15 11.496 12.15h-55.766c-22.158 0-38.509 10.21-43.715 22.82-8.938 21.543 4.119 39.041 29.177 39.041h28.267c10.163 0 18.884-5.913 18.884-5.913l-2.46 5.913h27.518l22.517-54.38c9.592-23.156-5-41.931-32.603-41.931h-80.77Zm76.598 64.31c-2.221 5.355-9.936 9.708-15.96 9.708h-41.97c-4.766 0-7.033-3.873-5.06-8.65 1.975-4.75 7.444-8.621 12.21-8.621h38.609c8.813 0 16.688-3.351 16.688-3.351l-4.517 10.913v.001Zm54.441 32.001 88.514-213.76H788.4l-88.528 213.76h27.517Zm-209.002-96.311h-27.51l-9.236 22.3h27.502l9.244-22.3Zm-39.892 96.311 25.623-61.86h-27.52l-25.62 61.86h27.517Zm299.219-74.157c-8.483 20.51 2.544 37.148 24.67 37.148h55.841c4.066 0 5.999 3.295 4.307 7.36-1.684 4.066-6.34 7.356-10.398 7.356H749.99l-9.23 22.293h102.453c19.087 0 36.366-4.364 43.722-22.15 8.497-20.524-2.54-37.152-24.66-37.152H806.44c-4.072 0-6.01-3.294-4.318-7.356 1.688-4.073 6.347-7.353 10.41-7.353H903l9.233-22.3H821.44c-19.08 0-37.951 8.206-43.726 22.154ZM298.802 458.436l31.956-77.17c12.2-29.461 39.077-53.343 81.598-53.343h27.286l-17.285 41.732c-2.272 5.49-8.636 9.987-14.12 9.987H344.66l-9.24 22.293h76.097c13.743 0 27.585-6.277 35.328-24.99l29.547-71.322h-65.08c-51.058 0-89.915 31.807-106.163 71.033l-33.86 81.78h27.513Z"/>
  <path fill="#041E42" d="M508.61 432.987c-9.09 21.991-8.746 52.461.768 67.721l54.327 87.047 35.758-51.917-66.143-54.985c-6.965-5.768-8.934-19.492-4.371-30.491L698.535 40.816h-27.517L561.366 305.623h-32.613l-9.236 22.3h32.624l-43.53 105.064h-.001Z"/>
</svg>
